<?xml version="1.0" encoding="iso-8859-1"?>
<!-- Uploaded to: SVG Repo, www.svgrepo.com, Generator: SVG Repo Mixer Tools -->
<!DOCTYPE svg PUBLIC "-//W3C//DTD SVG 1.1//EN" "http://www.w3.org/Graphics/SVG/1.1/DTD/svg11.dtd">
<svg fill="#000000" version="1.1" id="Capa_1" xmlns="http://www.w3.org/2000/svg" xmlns:xlink="http://www.w3.org/1999/xlink" 
	 width="800px" height="800px" viewBox="0 0 923.011 923.011"
	 xml:space="preserve">
<g>
	<path d="M647.984,534.2h-28.433v289.259c0,7.182-1.7,13.971-4.705,20h288.164c11.046,0,20-8.954,20-20v-190.73
		c0-10.894-4.442-21.315-12.303-28.859L414.244,127.402l268.782,333.563c10.974,13.619,13.102,31.88,5.553,47.657
		C681.029,524.398,665.474,534.2,647.984,534.2z"/>
	<path d="M20.038,509.2H73.47v314.259c0,11.046,8.955,20,20,20h481.082c3.748,0,7.242-1.05,10.241-2.845
		c5.838-3.492,9.759-9.857,9.759-17.155V509.2h53.433c16.804,0,26.116-19.466,15.573-32.55L421.293,175.996l-71.709-88.993
		c-4.003-4.967-9.788-7.451-15.573-7.451s-11.57,2.484-15.573,7.451L4.464,476.651C-6.079,489.735,3.234,509.2,20.038,509.2z
		 M203.01,588.791h262v150.886h-262V588.791z"/>
</g>
</svg>