<?xml version="1.0" encoding="iso-8859-1"?>
<!-- Uploaded to: SVG Repo, www.svgrepo.com, Generator: SVG Repo Mixer Tools -->
<!DOCTYPE svg PUBLIC "-//W3C//DTD SVG 1.1//EN" "http://www.w3.org/Graphics/SVG/1.1/DTD/svg11.dtd">
<svg fill="#000000" version="1.1" id="Capa_1" xmlns="http://www.w3.org/2000/svg" xmlns:xlink="http://www.w3.org/1999/xlink" 
	 width="800px" height="800px" viewBox="0 0 187.059 187.06"
	 xml:space="preserve">
<g>
	<path d="M185.646,129.358h-13.907l-8.464-17.53c1.662-0.913,3.209-1.961,4.604-3.233l3.97,3.977
		c-0.396,0.572-0.792,1.168-0.792,1.911c0,1.948,1.584,3.514,3.52,3.514c1.949,0,3.508-1.565,3.508-3.514s-1.559-3.513-3.508-3.513
		c-0.109,0-0.146,0.104-0.256,0.115l-4.444-4.457c3.616-4.037,5.882-9.231,6.211-14.979h3.202c-1.035,0.603-1.851,1.541-1.851,2.828
		c0,1.946,1.583,3.511,3.507,3.511c1.955,0,3.526-1.565,3.526-3.511c0-1.288-0.816-2.226-1.863-2.828h1.771
		c0.779,0,1.407-0.63,1.407-1.41c0-0.792-0.628-1.41-1.407-1.41h-8.3c-0.334-5.748-2.611-10.948-6.223-14.991l1.163-1.157
		c0.585,1.102,1.528,1.976,2.886,1.976c1.943,0,3.514-1.57,3.514-3.516c0-1.355-0.883-2.295-1.979-2.886l0.305-0.308
		c0.548-0.548,0.548-1.428,0-1.976c-0.549-0.548-1.438-0.548-1.998,0l-5.882,5.885c-4.031-3.602-9.231-5.885-14.979-6.223v-4.238
		c1.291-0.512,2.314-1.535,2.314-3.018c0-1.948-1.56-3.52-3.514-3.52c-1.942,0-3.514,1.571-3.514,3.52
		c0,1.321,0.841,2.25,1.912,2.862v4.394c-5.736,0.338-10.937,2.621-14.979,6.223l-5.87-5.885c-0.548-0.548-1.437-0.548-1.991,0
		c-0.554,0.554-0.554,1.428,0,1.976l0.098,0.101c-1.376,0.481-2.479,1.553-2.479,3.093c0,1.946,1.584,3.516,3.514,3.516
		c1.541,0,2.612-1.104,3.094-2.481l1.674,1.663c-3.616,4.043-5.888,9.243-6.223,14.991h-8.306c-0.779,0-1.425,0.618-1.425,1.41
		c0,0.779,0.646,1.41,1.425,1.41h1.937c-1.041,0.603-1.852,1.541-1.852,2.828c0,1.946,1.577,3.511,3.52,3.511
		s3.508-1.565,3.508-3.511c0-1.288-0.81-2.226-1.857-2.828h3.038c0.335,5.748,2.606,10.942,6.224,14.979l-4.536,4.53
		c-1.711,0.237-3.094,1.559-3.094,3.343c0,1.942,1.577,3.514,3.514,3.514c1.948,0,3.52-1.571,3.52-3.514
		c0-0.92-0.39-1.717-0.962-2.356l3.525-3.525c1.406,1.261,2.953,2.319,4.615,3.233l-8.488,17.53H115.17v-32.86
		c0-0.076-0.062-0.1-0.073-0.161c0.012-0.07,0.061-0.131,0.073-0.188c0.146-2.75-0.999-5.124-3.35-6.863
		c-7.928-5.806-29.651-4.378-50.652,3.379C30.826,76.782,9.609,71.39,9.377,71.326c-0.423-0.113-0.865-0.013-1.209,0.243
		c-0.344,0.28-0.548,0.673-0.548,1.124v56.69H1.403C0.63,129.383,0,130.01,0,130.79c0,0.791,0.636,1.412,1.403,1.412h90.692h0.012
		h93.539c0.779,0,1.413-0.621,1.413-1.412C187.059,129.985,186.414,129.358,185.646,129.358z M154.689,121.796
		c-0.024-0.092-0.061-0.164-0.109-0.237l8.342-3.995l4.957,10.267L154.689,121.796z M152.886,101.896
		c0.779-0.098,1.522-0.213,2.223-0.433l4.408,9.122c-2.082,0.81-4.305,1.278-6.631,1.425V101.896L152.886,101.896z M152.886,99.102
		v-2.229l0.999,2.034C153.556,98.979,153.24,99.034,152.886,99.102z M155.918,96.642l0.865,0.861
		c-0.122,0.085-0.231,0.144-0.341,0.21L155.918,96.642z M155.346,92.084c0.062-0.155,0.122-0.292,0.183-0.454h4.835
		c-0.243,1.438-0.779,2.743-1.613,3.864L155.346,92.084z M155.529,88.817c-0.061-0.155-0.128-0.304-0.183-0.469l3.41-3.41
		c0.841,1.129,1.376,2.444,1.607,3.878H155.529z M153.349,86.372c-0.146-0.076-0.292-0.137-0.45-0.191v-4.829
		c1.437,0.237,2.728,0.773,3.872,1.604L153.349,86.372z M150.074,86.174c-0.146,0.055-0.305,0.127-0.451,0.192l-3.41-3.438
		c1.121-0.822,2.412-1.358,3.861-1.596V86.174z M147.65,88.348c-0.085,0.165-0.141,0.313-0.195,0.469h-4.828
		c0.231-1.434,0.779-2.75,1.595-3.878L147.65,88.348z M147.443,91.621c0.061,0.164,0.122,0.301,0.194,0.457l-3.428,3.41
		c-0.816-1.123-1.364-2.426-1.596-3.866H147.443z M147.065,96.642l-0.523,1.071c-0.122-0.066-0.243-0.131-0.329-0.21L147.065,96.642
		z M150.074,96.86v2.217c-0.329-0.055-0.658-0.109-0.975-0.195L150.074,96.86z M150.074,101.896v10.108
		c-2.326-0.141-4.555-0.621-6.619-1.432l4.396-9.121C148.576,101.684,149.318,101.799,150.074,101.896z M161.691,115.043
		l-8.792,4.208v-4.445c2.765-0.152,5.419-0.694,7.86-1.688L161.691,115.043z M162.033,109.307l-4.385-9.079
		c0.39-0.243,0.755-0.48,1.097-0.755l7.148,7.143C164.711,107.65,163.433,108.54,162.033,109.307z M167.866,104.618l-7.124-7.137
		c1.327-1.68,2.155-3.659,2.436-5.86h10.084C172.944,96.599,170.984,101.099,167.866,104.618z M173.261,88.817h-10.072
		c-0.279-2.213-1.12-4.195-2.441-5.867l7.131-7.127C170.984,79.345,172.944,83.836,173.261,88.817z M165.88,73.825l-7.143,7.14
		c-1.662-1.315-3.641-2.144-5.852-2.411V68.445C157.868,68.766,162.374,70.72,165.88,73.825z M150.074,68.434v10.108
		c-2.217,0.28-4.178,1.096-5.858,2.423l-7.124-7.146C140.611,70.72,145.105,68.766,150.074,68.434z M135.094,75.823l7.136,7.127
		c-1.303,1.684-2.155,3.653-2.423,5.867h-10.084C130.04,83.836,132,79.345,135.094,75.823z M129.723,91.621h10.084
		c0.268,2.207,1.12,4.192,2.423,5.86l-7.136,7.137C132,101.099,130.04,96.599,129.723,91.621z M137.091,106.615l7.124-7.143
		c0.365,0.274,0.73,0.512,1.12,0.755l-4.408,9.079C139.551,108.54,138.26,107.65,137.091,106.615z M150.074,114.806v4.883
		l-9.037-4.141l1.182-2.453C144.678,114.111,147.321,114.653,150.074,114.806z M139.819,118.075l7.929,3.642l-12.604,6.034
		L139.819,118.075z M148.721,124.378c0.548,1.211,1.535,2.204,2.966,2.204c1.267,0,2.186-0.761,2.807-1.772l9.92,4.549h-26.117
		L148.721,124.378z M70.604,101.025c2.326,1.321,5.13,2.473,8.129,3.44v24.893h-9.158v-28.893
		C69.922,100.66,70.248,100.825,70.604,101.025z M107.949,90.5v11.999c-2.217,1.17-5.151,1.814-8.415,2.046V88.759
		c3.397,0.22,6.259,0.78,8.427,1.718C107.96,90.488,107.949,90.488,107.949,90.5z M96.736,104.594c-2.707,0-5.545-0.256-8.4-0.706
		V89.103c2.986-0.317,5.818-0.493,8.4-0.481V104.594z M85.504,103.406c-2.959-0.64-5.791-1.491-8.403-2.478V90.96
		c2.855-0.636,5.69-1.178,8.403-1.564V103.406z M81.552,105.3c3.011,0.816,6.159,1.449,9.295,1.814l-0.137,22.244h-9.158V105.3z
		 M93.66,107.298c1.416,0.098,2.783,0.121,4.141,0.098c0.124,0.023,0.207,0.127,0.344,0.127c0.149,0,0.262-0.127,0.411-0.164
		c1.428-0.055,2.785-0.183,4.107-0.384v22.402h-9.14L93.66,107.298z M105.489,106.445c1.437-0.39,2.765-0.901,3.915-1.522
		c1.267-0.688,2.089-1.693,2.953-2.631v27.066h-6.875L105.489,106.445L105.489,106.445z M112.357,95.98
		c-0.098,1.608-0.682,2.95-1.596,4.102v-7.818C111.833,93.338,112.449,94.51,112.357,95.98z M74.293,91.636v8.056
		c-0.773-0.384-1.595-0.713-2.301-1.127c-2.53-1.431-5.018-2.81-7.45-4.113C67.785,93.351,71.051,92.446,74.293,91.636z
		 M66.755,98.925v30.434h-9.161V94.017C60.544,95.527,63.62,97.189,66.755,98.925z M33.633,82.874
		c2.856,1.178,5.913,2.512,9.161,3.997v42.487h-9.161V82.874z M30.814,129.358h-9.158V78.228c2.725,0.975,5.718,2.089,9.158,3.48
		V129.358z M45.611,88.162c2.932,1.364,5.979,2.85,9.161,4.445v36.763h-9.161V88.162z M10.431,74.514
		c1.69,0.478,4.597,1.388,8.43,2.713c0,0.024-0.024,0.048-0.024,0.073v52.071h-8.406V74.514z"/>
</g>
</svg>